<mxfile host="app.diagrams.net" agent="Mozilla/5.0 (Windows NT 10.0; Win64; x64) AppleWebKit/537.36 (KHTML, like Gecko) Chrome/139.0.0.0 Safari/537.36 Edg/139.0.0.0" version="28.2.0">
  <diagram name="PÃ¡gina-1" id="sUMPUYdTYiLLYJZObClu">
    <mxGraphModel dx="1034" dy="570" grid="1" gridSize="10" guides="1" tooltips="1" connect="1" arrows="1" fold="1" page="1" pageScale="1" pageWidth="827" pageHeight="1169" math="0" shadow="0">
      <root>
        <mxCell id="0" />
        <mxCell id="1" parent="0" />
        <mxCell id="zcbuwcubICyc3tyf96CX-54" value="" style="group" parent="1" vertex="1" connectable="0">
          <mxGeometry x="40" y="310" width="210" height="140" as="geometry" />
        </mxCell>
        <mxCell id="zcbuwcubICyc3tyf96CX-20" value="Compra_Cliente" style="shape=table;startSize=30;container=1;collapsible=1;childLayout=tableLayout;fixedRows=1;rowLines=0;fontStyle=1;align=center;resizeLast=1;html=1;" parent="zcbuwcubICyc3tyf96CX-54" vertex="1">
          <mxGeometry width="210" height="140" as="geometry" />
        </mxCell>
        <mxCell id="zcbuwcubICyc3tyf96CX-21" value="" style="shape=tableRow;horizontal=0;startSize=0;swimlaneHead=0;swimlaneBody=0;fillColor=none;collapsible=0;dropTarget=0;points=[[0,0.5],[1,0.5]];portConstraint=eastwest;top=0;left=0;right=0;bottom=1;" parent="zcbuwcubICyc3tyf96CX-20" vertex="1">
          <mxGeometry y="30" width="210" height="30" as="geometry" />
        </mxCell>
        <mxCell id="zcbuwcubICyc3tyf96CX-22" value="PK" style="shape=partialRectangle;connectable=0;fillColor=none;top=0;left=0;bottom=0;right=0;fontStyle=1;overflow=hidden;whiteSpace=wrap;html=1;fontSize=10;" parent="zcbuwcubICyc3tyf96CX-21" vertex="1">
          <mxGeometry width="30" height="30" as="geometry">
            <mxRectangle width="30" height="30" as="alternateBounds" />
          </mxGeometry>
        </mxCell>
        <mxCell id="zcbuwcubICyc3tyf96CX-23" value="Folio_cliente: integer" style="shape=partialRectangle;connectable=0;fillColor=none;top=0;left=0;bottom=0;right=0;align=left;spacingLeft=6;fontStyle=5;overflow=hidden;whiteSpace=wrap;html=1;fontSize=10;" parent="zcbuwcubICyc3tyf96CX-21" vertex="1">
          <mxGeometry x="30" width="180" height="30" as="geometry">
            <mxRectangle width="180" height="30" as="alternateBounds" />
          </mxGeometry>
        </mxCell>
        <mxCell id="zcbuwcubICyc3tyf96CX-24" value="" style="shape=tableRow;horizontal=0;startSize=0;swimlaneHead=0;swimlaneBody=0;fillColor=none;collapsible=0;dropTarget=0;points=[[0,0.5],[1,0.5]];portConstraint=eastwest;top=0;left=0;right=0;bottom=0;fontFamily=Courier New;" parent="zcbuwcubICyc3tyf96CX-20" vertex="1">
          <mxGeometry y="60" width="210" height="20" as="geometry" />
        </mxCell>
        <mxCell id="zcbuwcubICyc3tyf96CX-25" value="FK" style="shape=partialRectangle;connectable=0;fillColor=none;top=0;left=0;bottom=0;right=0;editable=1;overflow=hidden;whiteSpace=wrap;html=1;" parent="zcbuwcubICyc3tyf96CX-24" vertex="1">
          <mxGeometry width="30" height="20" as="geometry">
            <mxRectangle width="30" height="20" as="alternateBounds" />
          </mxGeometry>
        </mxCell>
        <mxCell id="zcbuwcubICyc3tyf96CX-26" value="&lt;font face=&quot;Helvetica&quot;&gt;id_cliente: integer&lt;/font&gt;" style="shape=partialRectangle;connectable=0;fillColor=none;top=0;left=0;bottom=0;right=0;align=left;spacingLeft=6;overflow=hidden;whiteSpace=wrap;html=1;fontSize=10;" parent="zcbuwcubICyc3tyf96CX-24" vertex="1">
          <mxGeometry x="30" width="180" height="20" as="geometry">
            <mxRectangle width="180" height="20" as="alternateBounds" />
          </mxGeometry>
        </mxCell>
        <mxCell id="zcbuwcubICyc3tyf96CX-27" value="" style="shape=tableRow;horizontal=0;startSize=0;swimlaneHead=0;swimlaneBody=0;fillColor=none;collapsible=0;dropTarget=0;points=[[0,0.5],[1,0.5]];portConstraint=eastwest;top=0;left=0;right=0;bottom=0;" parent="zcbuwcubICyc3tyf96CX-20" vertex="1">
          <mxGeometry y="80" width="210" height="20" as="geometry" />
        </mxCell>
        <mxCell id="zcbuwcubICyc3tyf96CX-28" value="FK" style="shape=partialRectangle;connectable=0;fillColor=none;top=0;left=0;bottom=0;right=0;editable=1;overflow=hidden;whiteSpace=wrap;html=1;" parent="zcbuwcubICyc3tyf96CX-27" vertex="1">
          <mxGeometry width="30" height="20" as="geometry">
            <mxRectangle width="30" height="20" as="alternateBounds" />
          </mxGeometry>
        </mxCell>
        <mxCell id="zcbuwcubICyc3tyf96CX-29" value="&lt;span id=&quot;docs-internal-guid-43db7cdf-7fff-cd6d-313a-237d85439f93&quot;&gt;&lt;span style=&quot;background-color: transparent; font-variant-numeric: normal; font-variant-east-asian: normal; font-variant-alternates: normal; font-variant-position: normal; font-variant-emoji: normal; vertical-align: baseline; white-space-collapse: preserve;&quot;&gt;&lt;font style=&quot;font-size: 10px;&quot;&gt;id_vendedor: integer&lt;/font&gt;&lt;/span&gt;&lt;/span&gt;" style="shape=partialRectangle;connectable=0;fillColor=none;top=0;left=0;bottom=0;right=0;align=left;spacingLeft=6;overflow=hidden;whiteSpace=wrap;html=1;" parent="zcbuwcubICyc3tyf96CX-27" vertex="1">
          <mxGeometry x="30" width="180" height="20" as="geometry">
            <mxRectangle width="180" height="20" as="alternateBounds" />
          </mxGeometry>
        </mxCell>
        <mxCell id="zcbuwcubICyc3tyf96CX-30" value="" style="shape=tableRow;horizontal=0;startSize=0;swimlaneHead=0;swimlaneBody=0;fillColor=none;collapsible=0;dropTarget=0;points=[[0,0.5],[1,0.5]];portConstraint=eastwest;top=0;left=0;right=0;bottom=0;" parent="zcbuwcubICyc3tyf96CX-20" vertex="1">
          <mxGeometry y="100" width="210" height="20" as="geometry" />
        </mxCell>
        <mxCell id="zcbuwcubICyc3tyf96CX-31" value="" style="shape=partialRectangle;connectable=0;fillColor=none;top=0;left=0;bottom=0;right=0;editable=1;overflow=hidden;whiteSpace=wrap;html=1;" parent="zcbuwcubICyc3tyf96CX-30" vertex="1">
          <mxGeometry width="30" height="20" as="geometry">
            <mxRectangle width="30" height="20" as="alternateBounds" />
          </mxGeometry>
        </mxCell>
        <mxCell id="zcbuwcubICyc3tyf96CX-32" value="&lt;div&gt;&lt;font&gt;&lt;span style=&quot;font-size: 10px; white-space-collapse: preserve;&quot;&gt;pago_total_cliente: money&lt;/span&gt;&lt;/font&gt;&lt;/div&gt;" style="shape=partialRectangle;connectable=0;fillColor=none;top=0;left=0;bottom=0;right=0;align=left;spacingLeft=6;overflow=hidden;whiteSpace=wrap;html=1;fontFamily=Helvetica;" parent="zcbuwcubICyc3tyf96CX-30" vertex="1">
          <mxGeometry x="30" width="180" height="20" as="geometry">
            <mxRectangle width="180" height="20" as="alternateBounds" />
          </mxGeometry>
        </mxCell>
        <mxCell id="zcbuwcubICyc3tyf96CX-33" value="&lt;div&gt;&lt;font&gt;&lt;span style=&quot;font-size: 10px; white-space-collapse: preserve;&quot;&gt;fecha_orden_cliente: date&lt;/span&gt;&lt;/font&gt;&lt;/div&gt;" style="shape=partialRectangle;connectable=0;fillColor=none;top=0;left=0;bottom=0;right=0;align=left;spacingLeft=6;overflow=hidden;whiteSpace=wrap;html=1;fontFamily=Helvetica;" parent="zcbuwcubICyc3tyf96CX-54" vertex="1">
          <mxGeometry x="30" y="120" width="180" height="20" as="geometry">
            <mxRectangle width="180" height="30" as="alternateBounds" />
          </mxGeometry>
        </mxCell>
        <mxCell id="zcbuwcubICyc3tyf96CX-55" value="" style="group" parent="1" vertex="1" connectable="0">
          <mxGeometry x="40" y="30" width="210" height="140" as="geometry" />
        </mxCell>
        <mxCell id="zcbuwcubICyc3tyf96CX-36" value="Cliente" style="shape=table;startSize=30;container=1;collapsible=1;childLayout=tableLayout;fixedRows=1;rowLines=0;fontStyle=1;align=center;resizeLast=1;html=1;" parent="zcbuwcubICyc3tyf96CX-55" vertex="1">
          <mxGeometry width="210" height="140" as="geometry" />
        </mxCell>
        <mxCell id="zcbuwcubICyc3tyf96CX-37" value="" style="shape=tableRow;horizontal=0;startSize=0;swimlaneHead=0;swimlaneBody=0;fillColor=none;collapsible=0;dropTarget=0;points=[[0,0.5],[1,0.5]];portConstraint=eastwest;top=0;left=0;right=0;bottom=1;" parent="zcbuwcubICyc3tyf96CX-36" vertex="1">
          <mxGeometry y="30" width="210" height="30" as="geometry" />
        </mxCell>
        <mxCell id="zcbuwcubICyc3tyf96CX-38" value="PK" style="shape=partialRectangle;connectable=0;fillColor=none;top=0;left=0;bottom=0;right=0;fontStyle=1;overflow=hidden;whiteSpace=wrap;html=1;fontSize=10;" parent="zcbuwcubICyc3tyf96CX-37" vertex="1">
          <mxGeometry width="30" height="30" as="geometry">
            <mxRectangle width="30" height="30" as="alternateBounds" />
          </mxGeometry>
        </mxCell>
        <mxCell id="zcbuwcubICyc3tyf96CX-39" value="id_cliente: integer" style="shape=partialRectangle;connectable=0;fillColor=none;top=0;left=0;bottom=0;right=0;align=left;spacingLeft=6;fontStyle=5;overflow=hidden;whiteSpace=wrap;html=1;fontSize=10;" parent="zcbuwcubICyc3tyf96CX-37" vertex="1">
          <mxGeometry x="30" width="180" height="30" as="geometry">
            <mxRectangle width="180" height="30" as="alternateBounds" />
          </mxGeometry>
        </mxCell>
        <mxCell id="zcbuwcubICyc3tyf96CX-40" value="" style="shape=tableRow;horizontal=0;startSize=0;swimlaneHead=0;swimlaneBody=0;fillColor=none;collapsible=0;dropTarget=0;points=[[0,0.5],[1,0.5]];portConstraint=eastwest;top=0;left=0;right=0;bottom=0;fontFamily=Courier New;" parent="zcbuwcubICyc3tyf96CX-36" vertex="1">
          <mxGeometry y="60" width="210" height="20" as="geometry" />
        </mxCell>
        <mxCell id="zcbuwcubICyc3tyf96CX-41" value="FK" style="shape=partialRectangle;connectable=0;fillColor=none;top=0;left=0;bottom=0;right=0;editable=1;overflow=hidden;whiteSpace=wrap;html=1;" parent="zcbuwcubICyc3tyf96CX-40" vertex="1">
          <mxGeometry width="30" height="20" as="geometry">
            <mxRectangle width="30" height="20" as="alternateBounds" />
          </mxGeometry>
        </mxCell>
        <mxCell id="zcbuwcubICyc3tyf96CX-42" value="&lt;font face=&quot;Helvetica&quot;&gt;nombre_cliente: varcher(50)&lt;/font&gt;" style="shape=partialRectangle;connectable=0;fillColor=none;top=0;left=0;bottom=0;right=0;align=left;spacingLeft=6;overflow=hidden;whiteSpace=wrap;html=1;fontSize=10;" parent="zcbuwcubICyc3tyf96CX-40" vertex="1">
          <mxGeometry x="30" width="180" height="20" as="geometry">
            <mxRectangle width="180" height="20" as="alternateBounds" />
          </mxGeometry>
        </mxCell>
        <mxCell id="zcbuwcubICyc3tyf96CX-43" value="" style="shape=tableRow;horizontal=0;startSize=0;swimlaneHead=0;swimlaneBody=0;fillColor=none;collapsible=0;dropTarget=0;points=[[0,0.5],[1,0.5]];portConstraint=eastwest;top=0;left=0;right=0;bottom=0;" parent="zcbuwcubICyc3tyf96CX-36" vertex="1">
          <mxGeometry y="80" width="210" height="20" as="geometry" />
        </mxCell>
        <mxCell id="zcbuwcubICyc3tyf96CX-44" value="FK" style="shape=partialRectangle;connectable=0;fillColor=none;top=0;left=0;bottom=0;right=0;editable=1;overflow=hidden;whiteSpace=wrap;html=1;" parent="zcbuwcubICyc3tyf96CX-43" vertex="1">
          <mxGeometry width="30" height="20" as="geometry">
            <mxRectangle width="30" height="20" as="alternateBounds" />
          </mxGeometry>
        </mxCell>
        <mxCell id="zcbuwcubICyc3tyf96CX-45" value="&lt;span id=&quot;docs-internal-guid-43db7cdf-7fff-cd6d-313a-237d85439f93&quot;&gt;&lt;span style=&quot;background-color: transparent; font-variant-numeric: normal; font-variant-east-asian: normal; font-variant-alternates: normal; font-variant-position: normal; font-variant-emoji: normal; vertical-align: baseline; white-space-collapse: preserve;&quot;&gt;&lt;font style=&quot;font-size: 10px;&quot;&gt;ap_pat_cliente: varchar(50)&lt;/font&gt;&lt;/span&gt;&lt;/span&gt;" style="shape=partialRectangle;connectable=0;fillColor=none;top=0;left=0;bottom=0;right=0;align=left;spacingLeft=6;overflow=hidden;whiteSpace=wrap;html=1;" parent="zcbuwcubICyc3tyf96CX-43" vertex="1">
          <mxGeometry x="30" width="180" height="20" as="geometry">
            <mxRectangle width="180" height="20" as="alternateBounds" />
          </mxGeometry>
        </mxCell>
        <mxCell id="zcbuwcubICyc3tyf96CX-46" value="" style="shape=tableRow;horizontal=0;startSize=0;swimlaneHead=0;swimlaneBody=0;fillColor=none;collapsible=0;dropTarget=0;points=[[0,0.5],[1,0.5]];portConstraint=eastwest;top=0;left=0;right=0;bottom=0;" parent="zcbuwcubICyc3tyf96CX-36" vertex="1">
          <mxGeometry y="100" width="210" height="20" as="geometry" />
        </mxCell>
        <mxCell id="zcbuwcubICyc3tyf96CX-47" value="" style="shape=partialRectangle;connectable=0;fillColor=none;top=0;left=0;bottom=0;right=0;editable=1;overflow=hidden;whiteSpace=wrap;html=1;" parent="zcbuwcubICyc3tyf96CX-46" vertex="1">
          <mxGeometry width="30" height="20" as="geometry">
            <mxRectangle width="30" height="20" as="alternateBounds" />
          </mxGeometry>
        </mxCell>
        <mxCell id="zcbuwcubICyc3tyf96CX-48" value="&lt;div&gt;&lt;font&gt;&lt;span style=&quot;font-size: 10px; white-space-collapse: preserve;&quot;&gt;ap_mat_cliente: varchar(50)&lt;/span&gt;&lt;/font&gt;&lt;/div&gt;" style="shape=partialRectangle;connectable=0;fillColor=none;top=0;left=0;bottom=0;right=0;align=left;spacingLeft=6;overflow=hidden;whiteSpace=wrap;html=1;fontFamily=Helvetica;" parent="zcbuwcubICyc3tyf96CX-46" vertex="1">
          <mxGeometry x="30" width="180" height="20" as="geometry">
            <mxRectangle width="180" height="20" as="alternateBounds" />
          </mxGeometry>
        </mxCell>
        <mxCell id="zcbuwcubICyc3tyf96CX-49" value="&lt;div&gt;&lt;font&gt;&lt;span style=&quot;font-size: 10px; white-space-collapse: preserve;&quot;&gt;tel_cliente: bigint&lt;/span&gt;&lt;/font&gt;&lt;/div&gt;" style="shape=partialRectangle;connectable=0;fillColor=none;top=0;left=0;bottom=0;right=0;align=left;spacingLeft=6;overflow=hidden;whiteSpace=wrap;html=1;fontFamily=Helvetica;" parent="zcbuwcubICyc3tyf96CX-55" vertex="1">
          <mxGeometry x="30" y="120" width="180" height="20" as="geometry">
            <mxRectangle width="180" height="30" as="alternateBounds" />
          </mxGeometry>
        </mxCell>
        <mxCell id="zcbuwcubICyc3tyf96CX-61" value="" style="group" parent="1" vertex="1" connectable="0">
          <mxGeometry x="100" y="170" width="30" height="140.00000000000006" as="geometry" />
        </mxCell>
        <mxCell id="zcbuwcubICyc3tyf96CX-50" value="" style="endArrow=none;html=1;rounded=0;dashed=1;dashPattern=1 2;entryX=0.469;entryY=-0.004;entryDx=0;entryDy=0;entryPerimeter=0;" parent="zcbuwcubICyc3tyf96CX-61" edge="1">
          <mxGeometry relative="1" as="geometry">
            <mxPoint x="20" as="sourcePoint" />
            <mxPoint x="20.49000000000001" y="140.00000000000006" as="targetPoint" />
            <Array as="points">
              <mxPoint x="20" y="70.56" />
            </Array>
          </mxGeometry>
        </mxCell>
        <mxCell id="zcbuwcubICyc3tyf96CX-51" value="N" style="resizable=0;html=1;whiteSpace=wrap;align=right;verticalAlign=bottom;" parent="zcbuwcubICyc3tyf96CX-50" connectable="0" vertex="1">
          <mxGeometry x="1" relative="1" as="geometry" />
        </mxCell>
        <mxCell id="zcbuwcubICyc3tyf96CX-59" value="1" style="text;html=1;align=center;verticalAlign=middle;whiteSpace=wrap;rounded=0;" parent="zcbuwcubICyc3tyf96CX-61" vertex="1">
          <mxGeometry width="30" height="20" as="geometry" />
        </mxCell>
        <mxCell id="zcbuwcubICyc3tyf96CX-62" value="" style="group" parent="1" vertex="1" connectable="0">
          <mxGeometry x="30" y="530" width="210" height="150" as="geometry" />
        </mxCell>
        <mxCell id="zcbuwcubICyc3tyf96CX-63" value="Vendedor" style="shape=table;startSize=30;container=1;collapsible=1;childLayout=tableLayout;fixedRows=1;rowLines=0;fontStyle=1;align=center;resizeLast=1;html=1;" parent="zcbuwcubICyc3tyf96CX-62" vertex="1">
          <mxGeometry x="10" width="200" height="150" as="geometry" />
        </mxCell>
        <mxCell id="zcbuwcubICyc3tyf96CX-64" value="" style="shape=tableRow;horizontal=0;startSize=0;swimlaneHead=0;swimlaneBody=0;fillColor=none;collapsible=0;dropTarget=0;points=[[0,0.5],[1,0.5]];portConstraint=eastwest;top=0;left=0;right=0;bottom=1;" parent="zcbuwcubICyc3tyf96CX-63" vertex="1">
          <mxGeometry y="30" width="200" height="30" as="geometry" />
        </mxCell>
        <mxCell id="zcbuwcubICyc3tyf96CX-65" value="PK" style="shape=partialRectangle;connectable=0;fillColor=none;top=0;left=0;bottom=0;right=0;fontStyle=1;overflow=hidden;whiteSpace=wrap;html=1;fontSize=10;" parent="zcbuwcubICyc3tyf96CX-64" vertex="1">
          <mxGeometry width="30" height="30" as="geometry">
            <mxRectangle width="30" height="30" as="alternateBounds" />
          </mxGeometry>
        </mxCell>
        <mxCell id="zcbuwcubICyc3tyf96CX-66" value="id_vendedor: integer" style="shape=partialRectangle;connectable=0;fillColor=none;top=0;left=0;bottom=0;right=0;align=left;spacingLeft=6;fontStyle=5;overflow=hidden;whiteSpace=wrap;html=1;fontSize=10;" parent="zcbuwcubICyc3tyf96CX-64" vertex="1">
          <mxGeometry x="30" width="170" height="30" as="geometry">
            <mxRectangle width="170" height="30" as="alternateBounds" />
          </mxGeometry>
        </mxCell>
        <mxCell id="zcbuwcubICyc3tyf96CX-67" value="" style="shape=tableRow;horizontal=0;startSize=0;swimlaneHead=0;swimlaneBody=0;fillColor=none;collapsible=0;dropTarget=0;points=[[0,0.5],[1,0.5]];portConstraint=eastwest;top=0;left=0;right=0;bottom=0;fontFamily=Courier New;" parent="zcbuwcubICyc3tyf96CX-63" vertex="1">
          <mxGeometry y="60" width="200" height="20" as="geometry" />
        </mxCell>
        <mxCell id="zcbuwcubICyc3tyf96CX-68" value="FK" style="shape=partialRectangle;connectable=0;fillColor=none;top=0;left=0;bottom=0;right=0;editable=1;overflow=hidden;whiteSpace=wrap;html=1;" parent="zcbuwcubICyc3tyf96CX-67" vertex="1">
          <mxGeometry width="30" height="20" as="geometry">
            <mxRectangle width="30" height="20" as="alternateBounds" />
          </mxGeometry>
        </mxCell>
        <mxCell id="zcbuwcubICyc3tyf96CX-69" value="&lt;font face=&quot;Helvetica&quot;&gt;id_empleado: integer&lt;/font&gt;" style="shape=partialRectangle;connectable=0;fillColor=none;top=0;left=0;bottom=0;right=0;align=left;spacingLeft=6;overflow=hidden;whiteSpace=wrap;html=1;fontSize=10;" parent="zcbuwcubICyc3tyf96CX-67" vertex="1">
          <mxGeometry x="30" width="170" height="20" as="geometry">
            <mxRectangle width="170" height="20" as="alternateBounds" />
          </mxGeometry>
        </mxCell>
        <mxCell id="zcbuwcubICyc3tyf96CX-70" value="" style="shape=tableRow;horizontal=0;startSize=0;swimlaneHead=0;swimlaneBody=0;fillColor=none;collapsible=0;dropTarget=0;points=[[0,0.5],[1,0.5]];portConstraint=eastwest;top=0;left=0;right=0;bottom=0;" parent="zcbuwcubICyc3tyf96CX-63" vertex="1">
          <mxGeometry y="80" width="200" height="70" as="geometry" />
        </mxCell>
        <mxCell id="zcbuwcubICyc3tyf96CX-71" value="" style="shape=partialRectangle;connectable=0;fillColor=none;top=0;left=0;bottom=0;right=0;editable=1;overflow=hidden;whiteSpace=wrap;html=1;" parent="zcbuwcubICyc3tyf96CX-70" vertex="1">
          <mxGeometry width="30" height="70" as="geometry">
            <mxRectangle width="30" height="70" as="alternateBounds" />
          </mxGeometry>
        </mxCell>
        <mxCell id="zcbuwcubICyc3tyf96CX-72" value="&lt;span id=&quot;docs-internal-guid-43db7cdf-7fff-cd6d-313a-237d85439f93&quot;&gt;&lt;span style=&quot;background-color: transparent; font-variant-numeric: normal; font-variant-east-asian: normal; font-variant-alternates: normal; font-variant-position: normal; font-variant-emoji: normal; vertical-align: baseline; white-space-collapse: preserve;&quot;&gt;&lt;font style=&quot;font-size: 10px;&quot;&gt;n&lt;/font&gt;&lt;font style=&quot;font-size: 10px;&quot;&gt;ombre_vendedor: varchar(50)&lt;/font&gt;&lt;/span&gt;&lt;/span&gt;&lt;div&gt;&lt;font style=&quot;font-size: 10px;&quot;&gt;salario_vendedor: money&lt;/font&gt;&lt;/div&gt;&lt;div&gt;&lt;font style=&quot;font-size: 10px;&quot;&gt;ap_pat_vendedor: varchar(50)&lt;/font&gt;&lt;/div&gt;&lt;div&gt;&lt;font style=&quot;font-size: 10px;&quot;&gt;ap_mat_vendedor: varchar(50)&lt;/font&gt;&lt;/div&gt;" style="shape=partialRectangle;connectable=0;fillColor=none;top=0;left=0;bottom=0;right=0;align=left;spacingLeft=6;overflow=hidden;whiteSpace=wrap;html=1;" parent="zcbuwcubICyc3tyf96CX-70" vertex="1">
          <mxGeometry x="30" width="170" height="70" as="geometry">
            <mxRectangle width="170" height="70" as="alternateBounds" />
          </mxGeometry>
        </mxCell>
        <mxCell id="zcbuwcubICyc3tyf96CX-82" value="" style="group" parent="1" vertex="1" connectable="0">
          <mxGeometry x="110" y="450" width="30" height="80" as="geometry" />
        </mxCell>
        <mxCell id="zcbuwcubICyc3tyf96CX-79" value="" style="endArrow=none;html=1;rounded=0;dashed=1;dashPattern=1 2;entryX=0.469;entryY=-0.004;entryDx=0;entryDy=0;entryPerimeter=0;" parent="zcbuwcubICyc3tyf96CX-82" edge="1">
          <mxGeometry relative="1" as="geometry">
            <mxPoint x="10" y="80" as="sourcePoint" />
            <mxPoint x="10" as="targetPoint" />
            <Array as="points">
              <mxPoint x="10" y="39.42857142857142" />
            </Array>
          </mxGeometry>
        </mxCell>
        <mxCell id="zcbuwcubICyc3tyf96CX-80" value="N" style="resizable=0;html=1;whiteSpace=wrap;align=right;verticalAlign=bottom;rotation=-180;" parent="zcbuwcubICyc3tyf96CX-79" connectable="0" vertex="1">
          <mxGeometry x="1" relative="1" as="geometry" />
        </mxCell>
        <mxCell id="zcbuwcubICyc3tyf96CX-81" value="1" style="text;html=1;align=center;verticalAlign=middle;whiteSpace=wrap;rounded=0;rotation=0;" parent="zcbuwcubICyc3tyf96CX-82" vertex="1">
          <mxGeometry y="68.57142857142857" width="30" height="11.428571428571427" as="geometry" />
        </mxCell>
        <mxCell id="zcbuwcubICyc3tyf96CX-98" value="" style="group" parent="1" vertex="1" connectable="0">
          <mxGeometry x="360" y="300" width="210" height="120" as="geometry" />
        </mxCell>
        <mxCell id="zcbuwcubICyc3tyf96CX-99" value="detalle_compra_cliente" style="shape=table;startSize=30;container=1;collapsible=1;childLayout=tableLayout;fixedRows=1;rowLines=0;fontStyle=1;align=center;resizeLast=1;html=1;" parent="zcbuwcubICyc3tyf96CX-98" vertex="1">
          <mxGeometry x="-10.5" y="9.14" width="190.5" height="105" as="geometry" />
        </mxCell>
        <mxCell id="zcbuwcubICyc3tyf96CX-100" value="" style="shape=tableRow;horizontal=0;startSize=0;swimlaneHead=0;swimlaneBody=0;fillColor=none;collapsible=0;dropTarget=0;points=[[0,0.5],[1,0.5]];portConstraint=eastwest;top=0;left=0;right=0;bottom=1;" parent="zcbuwcubICyc3tyf96CX-99" vertex="1">
          <mxGeometry y="30" width="190.5" height="50" as="geometry" />
        </mxCell>
        <mxCell id="zcbuwcubICyc3tyf96CX-101" value="PK, FK&lt;div&gt;&lt;br&gt;&lt;/div&gt;&lt;div&gt;PK, FK&lt;/div&gt;" style="shape=partialRectangle;connectable=0;fillColor=none;top=0;left=0;bottom=0;right=0;fontStyle=1;overflow=hidden;whiteSpace=wrap;html=1;fontSize=10;" parent="zcbuwcubICyc3tyf96CX-100" vertex="1">
          <mxGeometry width="40" height="50" as="geometry">
            <mxRectangle width="40" height="50" as="alternateBounds" />
          </mxGeometry>
        </mxCell>
        <mxCell id="zcbuwcubICyc3tyf96CX-102" value="folio_cliente: integer&lt;div&gt;&lt;br&gt;&lt;/div&gt;&lt;div&gt;id_juguete: integer&lt;/div&gt;" style="shape=partialRectangle;connectable=0;fillColor=none;top=0;left=0;bottom=0;right=0;align=left;spacingLeft=6;fontStyle=5;overflow=hidden;whiteSpace=wrap;html=1;fontSize=10;" parent="zcbuwcubICyc3tyf96CX-100" vertex="1">
          <mxGeometry x="40" width="150.5" height="50" as="geometry">
            <mxRectangle width="150.5" height="50" as="alternateBounds" />
          </mxGeometry>
        </mxCell>
        <mxCell id="zcbuwcubICyc3tyf96CX-103" value="" style="shape=tableRow;horizontal=0;startSize=0;swimlaneHead=0;swimlaneBody=0;fillColor=none;collapsible=0;dropTarget=0;points=[[0,0.5],[1,0.5]];portConstraint=eastwest;top=0;left=0;right=0;bottom=0;fontFamily=Courier New;" parent="zcbuwcubICyc3tyf96CX-99" vertex="1">
          <mxGeometry y="80" width="190.5" height="25" as="geometry" />
        </mxCell>
        <mxCell id="zcbuwcubICyc3tyf96CX-104" value="" style="shape=partialRectangle;connectable=0;fillColor=none;top=0;left=0;bottom=0;right=0;editable=1;overflow=hidden;whiteSpace=wrap;html=1;" parent="zcbuwcubICyc3tyf96CX-103" vertex="1">
          <mxGeometry width="40" height="25" as="geometry">
            <mxRectangle width="40" height="25" as="alternateBounds" />
          </mxGeometry>
        </mxCell>
        <mxCell id="zcbuwcubICyc3tyf96CX-105" value="&lt;font face=&quot;Helvetica&quot;&gt;cantidad_cliente: integer&lt;/font&gt;" style="shape=partialRectangle;connectable=0;fillColor=none;top=0;left=0;bottom=0;right=0;align=left;spacingLeft=6;overflow=hidden;whiteSpace=wrap;html=1;fontSize=10;" parent="zcbuwcubICyc3tyf96CX-103" vertex="1">
          <mxGeometry x="40" width="150.5" height="25" as="geometry">
            <mxRectangle width="150.5" height="25" as="alternateBounds" />
          </mxGeometry>
        </mxCell>
        <mxCell id="zcbuwcubICyc3tyf96CX-114" value="" style="group;rotation=90;" parent="1" vertex="1" connectable="0">
          <mxGeometry x="350" y="220" width="30" height="140.00000000000006" as="geometry" />
        </mxCell>
        <mxCell id="zcbuwcubICyc3tyf96CX-119" value="" style="endArrow=none;html=1;rounded=0;dashed=1;dashPattern=1 2;" parent="1" target="zcbuwcubICyc3tyf96CX-117" edge="1">
          <mxGeometry relative="1" as="geometry">
            <mxPoint x="280" y="360" as="sourcePoint" />
            <mxPoint x="347" y="360" as="targetPoint" />
            <Array as="points" />
          </mxGeometry>
        </mxCell>
        <mxCell id="zcbuwcubICyc3tyf96CX-121" value="" style="group" parent="1" vertex="1" connectable="0">
          <mxGeometry x="240" y="339.14" width="107" height="20.860000000000014" as="geometry" />
        </mxCell>
        <mxCell id="zcbuwcubICyc3tyf96CX-115" value="" style="endArrow=none;html=1;rounded=0;dashed=1;dashPattern=1 2;" parent="zcbuwcubICyc3tyf96CX-121" source="zcbuwcubICyc3tyf96CX-117" edge="1">
          <mxGeometry relative="1" as="geometry">
            <mxPoint x="40" y="20.860000000000014" as="sourcePoint" />
            <mxPoint x="107" y="20.860000000000014" as="targetPoint" />
            <Array as="points">
              <mxPoint x="9" y="20.860000000000014" />
            </Array>
          </mxGeometry>
        </mxCell>
        <mxCell id="zcbuwcubICyc3tyf96CX-116" value="N" style="resizable=0;html=1;whiteSpace=wrap;align=right;verticalAlign=bottom;" parent="zcbuwcubICyc3tyf96CX-115" connectable="0" vertex="1">
          <mxGeometry x="1" relative="1" as="geometry" />
        </mxCell>
        <mxCell id="zcbuwcubICyc3tyf96CX-117" value="1" style="text;html=1;align=center;verticalAlign=middle;whiteSpace=wrap;rounded=0;" parent="zcbuwcubICyc3tyf96CX-121" vertex="1">
          <mxGeometry width="30" height="20" as="geometry" />
        </mxCell>
        <mxCell id="zcbuwcubICyc3tyf96CX-122" value="" style="group" parent="1" vertex="1" connectable="0">
          <mxGeometry x="50" y="760" width="210" height="90" as="geometry" />
        </mxCell>
        <mxCell id="zcbuwcubICyc3tyf96CX-123" value="empleado" style="shape=table;startSize=30;container=1;collapsible=1;childLayout=tableLayout;fixedRows=1;rowLines=0;fontStyle=1;align=center;resizeLast=1;html=1;" parent="zcbuwcubICyc3tyf96CX-122" vertex="1">
          <mxGeometry x="-10.5" y="6.855" width="200.5" height="76" as="geometry" />
        </mxCell>
        <mxCell id="zcbuwcubICyc3tyf96CX-124" value="" style="shape=tableRow;horizontal=0;startSize=0;swimlaneHead=0;swimlaneBody=0;fillColor=none;collapsible=0;dropTarget=0;points=[[0,0.5],[1,0.5]];portConstraint=eastwest;top=0;left=0;right=0;bottom=1;" parent="zcbuwcubICyc3tyf96CX-123" vertex="1">
          <mxGeometry y="30" width="200.5" height="21" as="geometry" />
        </mxCell>
        <mxCell id="zcbuwcubICyc3tyf96CX-125" value="PK" style="shape=partialRectangle;connectable=0;fillColor=none;top=0;left=0;bottom=0;right=0;fontStyle=1;overflow=hidden;whiteSpace=wrap;html=1;fontSize=10;" parent="zcbuwcubICyc3tyf96CX-124" vertex="1">
          <mxGeometry width="40" height="21" as="geometry">
            <mxRectangle width="40" height="21" as="alternateBounds" />
          </mxGeometry>
        </mxCell>
        <mxCell id="zcbuwcubICyc3tyf96CX-126" value="id_empleado: integer&lt;div&gt;&lt;br&gt;&lt;/div&gt;&lt;div&gt;&lt;br&gt;&lt;/div&gt;" style="shape=partialRectangle;connectable=0;fillColor=none;top=0;left=0;bottom=0;right=0;align=left;spacingLeft=6;fontStyle=5;overflow=hidden;whiteSpace=wrap;html=1;fontSize=10;" parent="zcbuwcubICyc3tyf96CX-124" vertex="1">
          <mxGeometry x="40" width="160.5" height="21" as="geometry">
            <mxRectangle width="160.5" height="21" as="alternateBounds" />
          </mxGeometry>
        </mxCell>
        <mxCell id="zcbuwcubICyc3tyf96CX-127" value="" style="shape=tableRow;horizontal=0;startSize=0;swimlaneHead=0;swimlaneBody=0;fillColor=none;collapsible=0;dropTarget=0;points=[[0,0.5],[1,0.5]];portConstraint=eastwest;top=0;left=0;right=0;bottom=0;fontFamily=Courier New;" parent="zcbuwcubICyc3tyf96CX-123" vertex="1">
          <mxGeometry y="51" width="200.5" height="25" as="geometry" />
        </mxCell>
        <mxCell id="zcbuwcubICyc3tyf96CX-128" value="" style="shape=partialRectangle;connectable=0;fillColor=none;top=0;left=0;bottom=0;right=0;editable=1;overflow=hidden;whiteSpace=wrap;html=1;" parent="zcbuwcubICyc3tyf96CX-127" vertex="1">
          <mxGeometry width="40" height="25" as="geometry">
            <mxRectangle width="40" height="25" as="alternateBounds" />
          </mxGeometry>
        </mxCell>
        <mxCell id="zcbuwcubICyc3tyf96CX-129" value="&lt;font face=&quot;Helvetica&quot;&gt;nombre_empleado: varchar(50)&lt;/font&gt;" style="shape=partialRectangle;connectable=0;fillColor=none;top=0;left=0;bottom=0;right=0;align=left;spacingLeft=6;overflow=hidden;whiteSpace=wrap;html=1;fontSize=10;" parent="zcbuwcubICyc3tyf96CX-127" vertex="1">
          <mxGeometry x="40" width="160.5" height="25" as="geometry">
            <mxRectangle width="160.5" height="25" as="alternateBounds" />
          </mxGeometry>
        </mxCell>
        <mxCell id="zcbuwcubICyc3tyf96CX-130" value="" style="group" parent="1" vertex="1" connectable="0">
          <mxGeometry x="110" y="680" width="30" height="90" as="geometry" />
        </mxCell>
        <mxCell id="zcbuwcubICyc3tyf96CX-131" value="" style="endArrow=none;html=1;rounded=0;dashed=1;dashPattern=1 2;entryX=0.469;entryY=-0.004;entryDx=0;entryDy=0;entryPerimeter=0;" parent="zcbuwcubICyc3tyf96CX-130" edge="1">
          <mxGeometry relative="1" as="geometry">
            <mxPoint x="10" y="90" as="sourcePoint" />
            <mxPoint x="10" as="targetPoint" />
            <Array as="points">
              <mxPoint x="10" y="44.357142857142854" />
            </Array>
          </mxGeometry>
        </mxCell>
        <mxCell id="zcbuwcubICyc3tyf96CX-132" value="N" style="resizable=0;html=1;whiteSpace=wrap;align=right;verticalAlign=bottom;rotation=-180;" parent="zcbuwcubICyc3tyf96CX-131" connectable="0" vertex="1">
          <mxGeometry x="1" relative="1" as="geometry" />
        </mxCell>
        <mxCell id="zcbuwcubICyc3tyf96CX-133" value="1" style="text;html=1;align=center;verticalAlign=middle;whiteSpace=wrap;rounded=0;rotation=0;" parent="zcbuwcubICyc3tyf96CX-130" vertex="1">
          <mxGeometry y="77.14285714285714" width="30" height="12.857142857142856" as="geometry" />
        </mxCell>
        <mxCell id="sXxd8GFUmHn8WL8ccv3t-1" value="" style="group" vertex="1" connectable="0" parent="1">
          <mxGeometry x="339.75" y="518.5699999999999" width="210" height="150" as="geometry" />
        </mxCell>
        <mxCell id="sXxd8GFUmHn8WL8ccv3t-2" value="Vendedor" style="shape=table;startSize=30;container=1;collapsible=1;childLayout=tableLayout;fixedRows=1;rowLines=0;fontStyle=1;align=center;resizeLast=1;html=1;" vertex="1" parent="sXxd8GFUmHn8WL8ccv3t-1">
          <mxGeometry x="10" width="200" height="150" as="geometry" />
        </mxCell>
        <mxCell id="sXxd8GFUmHn8WL8ccv3t-3" value="" style="shape=tableRow;horizontal=0;startSize=0;swimlaneHead=0;swimlaneBody=0;fillColor=none;collapsible=0;dropTarget=0;points=[[0,0.5],[1,0.5]];portConstraint=eastwest;top=0;left=0;right=0;bottom=1;" vertex="1" parent="sXxd8GFUmHn8WL8ccv3t-2">
          <mxGeometry y="30" width="200" height="30" as="geometry" />
        </mxCell>
        <mxCell id="sXxd8GFUmHn8WL8ccv3t-4" value="PK" style="shape=partialRectangle;connectable=0;fillColor=none;top=0;left=0;bottom=0;right=0;fontStyle=1;overflow=hidden;whiteSpace=wrap;html=1;fontSize=10;" vertex="1" parent="sXxd8GFUmHn8WL8ccv3t-3">
          <mxGeometry width="30" height="30" as="geometry">
            <mxRectangle width="30" height="30" as="alternateBounds" />
          </mxGeometry>
        </mxCell>
        <mxCell id="sXxd8GFUmHn8WL8ccv3t-5" value="id_vendedor: integer" style="shape=partialRectangle;connectable=0;fillColor=none;top=0;left=0;bottom=0;right=0;align=left;spacingLeft=6;fontStyle=5;overflow=hidden;whiteSpace=wrap;html=1;fontSize=10;" vertex="1" parent="sXxd8GFUmHn8WL8ccv3t-3">
          <mxGeometry x="30" width="170" height="30" as="geometry">
            <mxRectangle width="170" height="30" as="alternateBounds" />
          </mxGeometry>
        </mxCell>
        <mxCell id="sXxd8GFUmHn8WL8ccv3t-6" value="" style="shape=tableRow;horizontal=0;startSize=0;swimlaneHead=0;swimlaneBody=0;fillColor=none;collapsible=0;dropTarget=0;points=[[0,0.5],[1,0.5]];portConstraint=eastwest;top=0;left=0;right=0;bottom=0;fontFamily=Courier New;" vertex="1" parent="sXxd8GFUmHn8WL8ccv3t-2">
          <mxGeometry y="60" width="200" height="20" as="geometry" />
        </mxCell>
        <mxCell id="sXxd8GFUmHn8WL8ccv3t-7" value="FK" style="shape=partialRectangle;connectable=0;fillColor=none;top=0;left=0;bottom=0;right=0;editable=1;overflow=hidden;whiteSpace=wrap;html=1;" vertex="1" parent="sXxd8GFUmHn8WL8ccv3t-6">
          <mxGeometry width="30" height="20" as="geometry">
            <mxRectangle width="30" height="20" as="alternateBounds" />
          </mxGeometry>
        </mxCell>
        <mxCell id="sXxd8GFUmHn8WL8ccv3t-8" value="&lt;font face=&quot;Helvetica&quot;&gt;id_empleado: integer&lt;/font&gt;" style="shape=partialRectangle;connectable=0;fillColor=none;top=0;left=0;bottom=0;right=0;align=left;spacingLeft=6;overflow=hidden;whiteSpace=wrap;html=1;fontSize=10;" vertex="1" parent="sXxd8GFUmHn8WL8ccv3t-6">
          <mxGeometry x="30" width="170" height="20" as="geometry">
            <mxRectangle width="170" height="20" as="alternateBounds" />
          </mxGeometry>
        </mxCell>
        <mxCell id="sXxd8GFUmHn8WL8ccv3t-9" value="" style="shape=tableRow;horizontal=0;startSize=0;swimlaneHead=0;swimlaneBody=0;fillColor=none;collapsible=0;dropTarget=0;points=[[0,0.5],[1,0.5]];portConstraint=eastwest;top=0;left=0;right=0;bottom=0;" vertex="1" parent="sXxd8GFUmHn8WL8ccv3t-2">
          <mxGeometry y="80" width="200" height="70" as="geometry" />
        </mxCell>
        <mxCell id="sXxd8GFUmHn8WL8ccv3t-10" value="" style="shape=partialRectangle;connectable=0;fillColor=none;top=0;left=0;bottom=0;right=0;editable=1;overflow=hidden;whiteSpace=wrap;html=1;" vertex="1" parent="sXxd8GFUmHn8WL8ccv3t-9">
          <mxGeometry width="30" height="70" as="geometry">
            <mxRectangle width="30" height="70" as="alternateBounds" />
          </mxGeometry>
        </mxCell>
        <mxCell id="sXxd8GFUmHn8WL8ccv3t-11" value="&lt;span id=&quot;docs-internal-guid-43db7cdf-7fff-cd6d-313a-237d85439f93&quot;&gt;&lt;span style=&quot;background-color: transparent; font-variant-numeric: normal; font-variant-east-asian: normal; font-variant-alternates: normal; font-variant-position: normal; font-variant-emoji: normal; vertical-align: baseline; white-space-collapse: preserve;&quot;&gt;&lt;font style=&quot;font-size: 10px;&quot;&gt;n&lt;/font&gt;&lt;font style=&quot;font-size: 10px;&quot;&gt;ombre_vendedor: varchar(50)&lt;/font&gt;&lt;/span&gt;&lt;/span&gt;&lt;div&gt;&lt;font style=&quot;font-size: 10px;&quot;&gt;salario_vendedor: money&lt;/font&gt;&lt;/div&gt;&lt;div&gt;&lt;font style=&quot;font-size: 10px;&quot;&gt;ap_pat_vendedor: varchar(50)&lt;/font&gt;&lt;/div&gt;&lt;div&gt;&lt;font style=&quot;font-size: 10px;&quot;&gt;ap_mat_vendedor: varchar(50)&lt;/font&gt;&lt;/div&gt;" style="shape=partialRectangle;connectable=0;fillColor=none;top=0;left=0;bottom=0;right=0;align=left;spacingLeft=6;overflow=hidden;whiteSpace=wrap;html=1;" vertex="1" parent="sXxd8GFUmHn8WL8ccv3t-9">
          <mxGeometry x="30" width="170" height="70" as="geometry">
            <mxRectangle width="170" height="70" as="alternateBounds" />
          </mxGeometry>
        </mxCell>
      </root>
    </mxGraphModel>
  </diagram>
</mxfile>
